<?xml version="1.0" encoding="UTF-8" standalone="no"?>
<!-- Created with Inkscape (http://www.inkscape.org/) -->

<svg
   version="1.1"
   id="svg1"
   width="340"
   height="356"
   viewBox="0 0 340 356"
   sodipodi:docname="logo_no_text.svg"
   inkscape:version="1.3.2 (091e20e, 2023-11-25)"
   xmlns:inkscape="http://www.inkscape.org/namespaces/inkscape"
   xmlns:sodipodi="http://sodipodi.sourceforge.net/DTD/sodipodi-0.dtd"
   xmlns="http://www.w3.org/2000/svg"
   xmlns:svg="http://www.w3.org/2000/svg">
  <defs
     id="defs1" />
  <sodipodi:namedview
     id="namedview1"
     pagecolor="#ffffff"
     bordercolor="#111111"
     borderopacity="1"
     inkscape:showpageshadow="0"
     inkscape:pageopacity="0"
     inkscape:pagecheckerboard="1"
     inkscape:deskcolor="#d1d1d1"
     inkscape:zoom="0.86168097"
     inkscape:cx="261.11752"
     inkscape:cy="126.49693"
     inkscape:window-width="1512"
     inkscape:window-height="857"
     inkscape:window-x="0"
     inkscape:window-y="38"
     inkscape:window-maximized="1"
     inkscape:current-layer="g2" />
  <g
     inkscape:groupmode="layer"
     inkscape:label="Image"
     id="g1">
    <g
       id="g2">
      <g
         id="g6"
         transform="translate(2.0485867,65.649937)">
        <path
           style="display:inline;fill:#f3b214"
           d="M 104.2171,165.24855 C 80.846393,138.49186 74.574324,92.413088 89.176455,54.75 90.27557,51.915065 95.114803,50.758704 96.5,53 c 0.339919,0.55 1.491476,1 2.559017,1 C 100.12656,54 101,54.45 101,55 c 0,0.55 0.63247,1 1.4055,1 1.6655,0 9.94773,4.169772 10.42783,5.25 0.18334,0.4125 0.97084,0.75 1.75,0.75 0.77917,0 1.41667,0.45 1.41667,1 0,0.55 0.48142,1 1.06982,1 0.96769,0 9.72185,5.558118 10.93018,6.939691 0.275,0.314428 2.3,1.91046 4.5,3.546738 5.27918,3.926454 18.33984,17.43358 19.06422,19.715911 C 151.87803,95.191053 152.52413,96 153,96 c 0.47587,0 1.13391,0.84655 1.4623,1.881222 0.32839,1.034672 1.47438,2.892758 2.54663,4.129078 1.07226,1.23632 1.70734,2.63977 1.4113,3.11878 -0.29605,0.479 -0.0758,0.87092 0.48937,0.87092 0.5652,0 0.74028,0.74882 0.38908,1.66404 -0.47426,1.2359 -0.27322,1.45545 0.78138,0.8533 1.1498,-0.6565 1.18213,-0.55454 0.16994,0.53596 -0.6875,0.74068 -1.25665,3.1692 -1.26478,5.3967 -0.0822,22.53027 -19.49961,47.03388 -42.89925,54.13637 -6.71513,2.03825 -7.32227,1.86751 -11.86887,-3.33782 z m 110.97254,-3.30777 c -18.79399,-4.85339 -29.94922,-14.48347 -32.55435,-28.10349 -1.75312,-9.16554 -6.20631,-24.33451 -7.74182,-26.37105 -2.30853,-3.0618 16.37021,-25.835441 28.81991,-35.138041 2.08175,-1.555509 4.65771,-3.615699 5.72437,-4.578199 1.06665,-0.9625 2.52952,-1.75 3.25081,-1.75 0.72129,0 1.31495,-0.3375 1.31924,-0.75 0.004,-0.4125 1.01679,-1.24539 2.25,-1.850866 6.01855,-2.954964 11.27584,-5.974817 11.57553,-6.649134 0.18334,-0.4125 0.97694,-0.75 1.76357,-0.75 0.78663,0 2.21163,-0.397498 3.16667,-0.883329 8.32407,-4.234485 10.7412,-4.381615 12.0444,-0.733144 8.32106,23.295722 9.51398,55.390593 2.8663,77.116473 -2.70327,8.83483 -4.14558,12.5 -4.91896,12.5 -0.41542,0 -0.75531,0.9 -0.75531,2 0,1.1 -0.45,2 -1,2 -0.55,0 -1,0.9 -1,2 0,1.1 -0.41968,2 -0.93261,2 -0.51294,0 -1.21742,0.89734 -1.56551,1.99408 -0.34809,1.09674 -1.17175,2.55924 -1.83035,3.25 -0.65861,0.69076 -1.9895,2.49342 -2.95755,4.00592 -2.16025,3.37523 -6.47118,3.54516 -17.52434,0.69078 z"
           id="path5" />
        <path
           style="display:inline;fill:#92b236"
           d="M 118,212.83719 C 66.454798,204.40195 36.214258,179.71002 17.160525,130.5 7.6059404,105.8234 7.2658857,91.668839 16.172193,89.36127 27.720595,86.369151 31.312782,86 48.880487,86 h 18.851785 l 0.580329,15.25 c 1.05944,27.84015 11.271823,58.88962 22.612344,68.75 0.31628,0.275 2.212314,2.525 4.213408,5 5.394217,6.6717 6.743077,8.03682 13.861647,14.02874 3.575,3.00919 6.725,5.73252 7,6.05183 1.25935,1.46228 16.1566,10.83823 22,13.84624 3.575,1.84031 6.9275,3.73463 7.45,4.2096 1.22971,1.11786 -20.21941,0.88405 -27.45,-0.29922 z m 70.01041,0.41281 c 0.006,-0.4125 2.59323,-1.98173 5.75,-3.48718 7.06886,-3.37111 11.63258,-6.02204 12.07292,-7.01282 0.18334,-0.4125 0.88598,-0.75 1.56144,-0.75 0.67546,0 2.10046,-0.79973 3.16667,-1.77718 1.06621,-0.97745 3.51356,-2.87514 5.43856,-4.21709 1.925,-1.34195 4.00062,-2.90472 4.6125,-3.47282 0.61187,-0.5681 3.86012,-3.42309 7.21831,-6.34442 4.97659,-4.32918 10.66077,-10.82519 18.978,-21.68849 11.42684,-14.92483 20.66238,-50.13099 18.5222,-70.60716 -0.84065,-8.042894 -1.33378,-7.859392 21.16936,-7.877527 18.04377,-0.01454 21.35808,0.330947 35.21909,3.6713 11.40856,2.749338 -0.44918,45.901267 -20.53105,74.715297 C 279.06603,196.14372 242.3247,214 199.1347,214 c -6.12408,0 -11.13001,-0.3375 -11.12429,-0.75 z M 163,87.013992 C 159.24826,81.71754 142.71386,65.120389 137.08436,61 128.72655,54.882685 129.11514,56.066513 133.01787,48.61137 134.92144,44.975116 136.76655,42 137.11813,42 c 0.35158,0 1.19842,-1.35 1.88187,-3 0.68345,-1.65 1.56928,-3 1.96851,-3 0.39922,0 1.13213,-0.856361 1.62868,-1.903026 2.37364,-5.003358 17.0023,-20.489944 21.74091,-23.015954 6.18293,-3.2959324 24.06809,15.245696 36.9391,38.294933 3.48911,6.248251 3.54839,5.962181 -2.0272,9.783199 -9.63742,6.604646 -25.64138,22.616217 -30.02817,30.04246 -2.13304,3.610962 -2.10823,3.619686 -6.22183,-2.18762 z"
           id="path4" />
        <path
           style="display:inline;fill:#ce9611"
           d="m 158,203.04276 c -0.825,-0.46179 -5.55,-2.79368 -10.5,-5.18197 -4.95,-2.38829 -9.15,-4.684 -9.33333,-5.10157 C 137.98333,192.34165 137.38941,192 136.84684,192 135.94001,192 127.1521,186.37759 126,185.06031 c -0.275,-0.31443 -2.125,-1.78186 -4.11111,-3.26095 C 117.99385,178.89864 110,171.44128 110,170.70836 c 0,-0.24664 2.1375,-1.02887 4.75,-1.73829 23.96983,-6.50898 44.15579,-31.51755 44.23522,-54.8034 0.0198,-5.81126 1.61806,-5.03159 4.70851,2.29694 8.56161,20.30258 9.3328,51.45678 1.91933,77.53639 -0.8599,3.025 -1.8521,6.5125 -2.20489,7.75 -0.65507,2.29784 -2.72754,2.79324 -5.40817,1.29276 z m 20.42325,-2.62872 c 3.60889,-9.05171 6.0517,-26.18497 6.06492,-42.53798 l 0.0118,-14.62394 5.53871,5.12394 c 9.28445,8.58917 25.77773,15.55927 36.93447,15.60859 l 3.47318,0.0154 -6.97318,7.05172 c -3.83525,3.87845 -9.44818,8.94095 -12.47318,11.25 -3.025,2.30905 -5.65,4.53578 -5.83333,4.94828 -0.18334,0.4125 -0.97084,0.75 -1.75,0.75 -0.77917,0 -1.41667,0.45 -1.41667,1 0,0.55 -0.48142,1 -1.06982,1 -0.58841,0 -2.95091,1.26594 -5.25,2.8132 -2.2991,1.54725 -6.88018,4.08904 -10.18018,5.6484 -3.3,1.55937 -6.41397,3.06725 -6.91994,3.35085 -0.529,0.29652 -0.59564,-0.29774 -0.15681,-1.39841 z"
           id="path3" />
      </g>
    </g>
  </g>
</svg>
